<svg xmlns="http://www.w3.org/2000/svg" width="750" height="471" viewBox="0 0 750 471">
  <rect width="750" height="471" fill="#0066b2"/>
  <path fill="#fff" d="M278.2 334.2L311 135h52.7l-32.8 199.2h-52.7zm246.8-195c-10.5-3.9-26.9-8.1-47.5-8.1-52.4 0-89.3 26.3-89.6 64-0.3 27.9 26.4 43.4 46.6 52.7 20.7 9.5 27.7 15.6 27.7 24.1 -0.1 13-16.6 19-31.9 19 -21.3 0-32.7-3-50.1-10.5l-6.9-3.1 -7.5 43.5c12.4 5.5 35.4 10.3 59.3 10.5 55.7 0 91.9-26 92.3-66.3 0.2-22.1-13.9-38.9-44.5-52.7 -18.5-9-29.9-15-29.8-24.1 0-8.1 9.6-16.7 30.3-16.7 17.3-0.3 29.9 3.5 39.7 7.4l4.8 2.3 7.2-42zm137.6-4.8h-40.7c-12.6 0-22.1 3.4-27.6 16L536 334.2h55.7l11.1-28.8h68.1l6.4 28.8h49.2L676.6 134.4h-14zm-65.6 126.2c4.4-11.2 21.2-54.2 21.2-54.2s4.4-11.2 7.1-18.5l3.6 17s10.2 46.8 12.4 56.7H597zm-408-126.2l-51.7 135.5 -5.5-26.8c-9.6-30.7-39.4-64-72.9-80.6l47.2 170.9h56.1l83.5-199h-56.7z"/>
  <path fill="#e79800" d="M131.9 134.4H46.2l-0.7 4.1c67.1 16.2 111.5 55.3 130 102.2l-18.8-89.8c-3.2-12.3-12.5-16.1-24.8-16.5z"/>
</svg>
